<svg width="22" height="133" xmlns="http://www.w3.org/2000/svg" aria-hidden="true" role="img" class="iconify iconify--noto" preserveAspectRatio="xMidYMid meet">
 <g>
  <title>Layer 1</title>
  <g transform="rotate(-44.0841 11.8728 68.6981)" id="svg_1">
   <path fill="#f3c976" d="m38.70754,37.42678l-68.98,70.62l0.3,3.28l2.98,0.45l69.73,-70.47l-4.03,-3.88z" id="svg_4"/>
   <path d="m41.74754,34.02678l-3.59,4.01l3.94,3.94l4.16,-3.8s6.62,1.27 7.33,0.85c0.97,-0.58 6.78,-18.55 6.48,-19.02c-0.49,-0.77 -6.56,1.66 -10.42,3.03c-4.58,1.62 -8.45,3.18 -8.8,3.66c-0.79,1.06 0.9,7.33 0.9,7.33z" fill="#858585" id="svg_5"/>
   <path d="m-30.18246,108.60678l3.19,3.17s-3.37,4.09 -3.91,4.14c-0.32,0.03 -3.09,-2.24 -2.87,-2.74c0.22,-0.49 3.59,-4.57 3.59,-4.57z" fill="#5d6265" id="svg_7"/>
   <path d="m-12.29246,90.17678c-0.03,0.08 -5.32,5.65 -10.2,10.8c-3.78,3.99 -7.36,7.86 -7.63,7.86c-0.61,0 -6.12,-5.2 -6.21,-6.41s8.34,-8.48 12.34,-11.31c8.26,-5.85 11.7,-0.94 11.7,-0.94z" fill="#db0d2a" id="svg_8"/>
   <path d="m-9.15246,93.40678c-0.21,0.19 -6.27,6.37 -11.3,11.5c-3.45,3.52 -6.51,6.53 -6.55,6.82c-0.05,0.41 4.62,5.81 5.11,5.81c0.9,0 9.73,-9.42 12.47,-14.17c4.04,-7 0.27,-9.96 0.27,-9.96z" fill="#db0d2a" id="svg_9"/>
  </g>
 </g>

</svg>