<svg width="128" height="128" xmlns="http://www.w3.org/2000/svg" preserveAspectRatio="xMidYMid meet" class="iconify iconify--noto" role="img" aria-hidden="true">

 <g>
  <title>Layer 1</title>
  <path transform="rotate(-43.2564 64.0497 62.2141)" stroke="null" id="svg_4" d="m99.38094,21.29271l-75.04689,77.7369l0.32639,3.61055l3.2421,0.49535l75.86286,-77.57178l-4.38444,-4.27102z" fill="#f3c976"/>
  <path transform="rotate(-43.827 64.6663 16.848)" stroke="null" id="svg_5" fill="#858585" d="m57.05665,20.06082l-3.70641,4.14427l4.06776,4.07192l4.2949,-3.92724s6.83467,1.31252 7.56769,0.87846c1.00145,-0.59942 6.99986,-19.17111 6.69013,-19.65685c-0.50589,-0.79578 -6.77272,1.71558 -10.75789,3.13145c-4.72852,1.67424 -8.72401,3.28648 -9.08536,3.78255c-0.81562,1.09549 0.92918,7.57543 0.92918,7.57543z"/>
  <path transform="rotate(-42.4604 63.067 118.763)" stroke="null" id="svg_7" fill="#5d6265" d="m63.3328,114.32721l4.11186,3.84737s-4.34388,4.96396 -5.03993,5.02464c-0.41248,0.03641 -3.98296,-2.71865 -3.69939,-3.32549c0.28358,-0.5947 4.62746,-5.54652 4.62746,-5.54652z"/>
  <path transform="rotate(-47.8027 57.258 104.163)" stroke="null" id="svg_8" fill="#db0d2a" d="m71.70531,95.68705c-0.03606,0.08105 -6.39413,5.7243 -12.25942,10.94203c-4.5432,4.04247 -8.84601,7.96336 -9.17052,7.96336c-0.73316,0 -7.35565,-5.26838 -7.46382,-6.4943s10.02388,-8.59152 14.83149,-11.45873c9.92772,-5.92693 14.06227,-0.95236 14.06227,-0.95236z"/>
  <path transform="rotate(-42.121 69.0631 104.161)" stroke="null" id="svg_9" fill="#db0d2a" d="m77.95514,90.04129c-0.22789,0.22063 -6.81063,7.27613 -12.2692,13.23316c-3.74395,4.08748 -7.06589,7.27972 -7.17601,7.97291c-0.11012,0.69319 5.02942,6.84361 5.98466,7.0305c0.95523,0.18689 10.09407,-11.41245 13.06753,-16.92822c4.38422,-8.1285 0.39302,-11.30835 0.39302,-11.30835z"/>
  <line id="svg_17" y2="70.09302" x2="92.25581" y1="69.6279" x1="80.6279" stroke="null" fill="none"/>
 </g>
</svg>