<svg width="200" height="200" xmlns="http://www.w3.org/2000/svg" preserveAspectRatio="xMidYMid meet" class="iconify iconify--noto" role="img" aria-hidden="true">

 <g>
  <title>Layer 1</title>
  <path id="svg_1" fill="#966738" d="m4.64898,84.01236c-1.71,2.99 0.97,9.35 14.07,11.95c16.31,3.24 33.88,-3.32 47.13,-1.01c7.54,1.32 12.32,3.03 15.06,4.27c2.13,0.97 2.13,1.05 2.13,1.05l3.38,-10.72s-9.41,-5.1 -22.03,-5.66s-22,3.57 -34.51,3.24c-18.86,-0.5 -22.55,-7.81 -25.23,-3.12z"/>
  <path id="svg_2" fill="#966738" d="m102.57898,118.27236l10.38,-4.24s5.38,7.51 7.28,22.25c2.27,17.61 -3.24,29.26 -1.45,39.2s5.7,15.3 5.36,17.65c-0.34,2.35 -2.01,4.91 -4.24,3.69c-2.23,-1.23 -9.19,-10.17 -9.49,-22.56c-0.34,-13.74 3.47,-25.2 0.34,-37.41c-3.48,-13.53 -8.18,-18.58 -8.18,-18.58z"/>
  <path id="svg_3" fill="#d29f6c" d="m85.61898,89.15236l-4.49,10.18s6.01,2.65 12.64,8.69c5.79,5.28 9.94,11.73 9.94,11.73l9.27,-5.7s-4.81,-8.52 -11.84,-14.63c-8.37,-7.28 -15.52,-10.27 -15.52,-10.27z"/>
  <path id="svg_4" d="m130.60484,69.03442l-68.98,70.62l0.3,3.28l2.98,0.45l69.73,-70.47l-4.03,-3.88z" fill="#f3c976"/>
  <path id="svg_5" fill="#858585" d="m133.90826,65.23282l-3.59,4.01l3.94,3.94l4.16,-3.8s6.62,1.27 7.33,0.85c0.97,-0.58 6.78,-18.55 6.48,-19.02c-0.49,-0.77 -6.56,1.66 -10.42,3.03c-4.58,1.62 -8.45,3.18 -8.8,3.66c-0.79,1.06 0.9,7.33 0.9,7.33z"/>
  <path id="svg_6" fill="#b8ced4" d="m115.63423,194.45726c-0.17,0 -0.35,-0.02 -0.52,-0.07c-22.47886,-17.68118 -37.88873,-31.29586 -58.76117,-48.37463c1.31084,-3.25837 4.02835,2.12954 2.32798,2.31912l-49.53681,-54.96449c-0.1,-0.37 -0.1,-0.75 0.02,-1.12l2.58,-8.53l3.82,1.24l-1.98,9.31l47.78522,52.19798l53.46478,43.93202l6.04,-6.97l1.52,3.93l-5.21,6.39c-0.4,0.46 -0.96,0.71 -1.55,0.71z"/>
  <path stroke="null" id="svg_7" fill="#5d6265" d="m62.49122,139.28619l3.56722,3.34415s-3.76851,4.31469 -4.37236,4.36744c-0.35784,0.03165 -3.4554,-2.36306 -3.20938,-2.89053c0.24602,-0.51692 4.01452,-4.82106 4.01452,-4.82106z"/>
  <path id="svg_8" fill="#db0d2a" d="m79.80564,121.20483c-0.03,0.08 -5.32,5.65 -10.2,10.8c-3.78,3.99 -7.36,7.86 -7.63,7.86c-0.61,0 -6.12,-5.2 -6.21,-6.41s8.34,-8.48 12.34,-11.31c8.26,-5.85 11.7,-0.94 11.7,-0.94z"/>
  <path id="svg_9" fill="#db0d2a" d="m83.44562,124.45182c-0.21,0.19 -6.27,6.37 -11.3,11.5c-3.45,3.52 -6.51,6.53 -6.55,6.82c-0.05,0.41 4.62,5.81 5.11,5.81c0.9,0 9.73,-9.42 12.47,-14.17c4.04,-7 0.27,-9.96 0.27,-9.96z"/>
 </g>
</svg>