<svg width="200" height="200" xmlns="http://www.w3.org/2000/svg" aria-hidden="true" role="img" class="iconify iconify--noto" preserveAspectRatio="xMidYMid meet">
 <g>
  <title>Layer 1</title>
  <path d="m4.64898,84.01236c-1.71,2.99 0.97,9.35 14.07,11.95c16.31,3.24 33.88,-3.32 47.13,-1.01c7.54,1.32 12.32,3.03 15.06,4.27c2.13,0.97 2.13,1.05 2.13,1.05l3.38,-10.72s-9.41,-5.1 -22.03,-5.66s-22,3.57 -34.51,3.24c-18.86,-0.5 -22.55,-7.81 -25.23,-3.12z" fill="#966738" id="svg_1"/>
  <path d="m102.57898,118.27236l10.38,-4.24s5.38,7.51 7.28,22.25c2.27,17.61 -3.24,29.26 -1.45,39.2s5.7,15.3 5.36,17.65c-0.34,2.35 -2.01,4.91 -4.24,3.69c-2.23,-1.23 -9.19,-10.17 -9.49,-22.56c-0.34,-13.74 3.47,-25.2 0.34,-37.41c-3.48,-13.53 -8.18,-18.58 -8.18,-18.58z" fill="#966738" id="svg_2"/>
  <path d="m85.61898,89.15236l-4.49,10.18s6.01,2.65 12.64,8.69c5.79,5.28 9.94,11.73 9.94,11.73l9.27,-5.7s-4.81,-8.52 -11.84,-14.63c-8.37,-7.28 -15.52,-10.27 -15.52,-10.27z" fill="#d29f6c" id="svg_3"/>
  <path d="m115.63423,194.45726c-0.17,0 -0.35,-0.02 -0.52,-0.07c-22.47886,-17.68118 -37.88873,-31.29586 -58.76117,-48.37463c1.31084,-3.25837 4.02835,2.12954 2.32798,2.31912l-49.53681,-54.96449c-0.1,-0.37 -0.1,-0.75 0.02,-1.12l2.58,-8.53l3.82,1.24l-1.98,9.31l47.78522,52.19798l53.46478,43.93202l6.04,-6.97l1.52,3.93l-5.21,6.39c-0.4,0.46 -0.96,0.71 -1.55,0.71z" fill="#b8ced4" id="svg_6"/>
 </g>

</svg>