<svg width="401" height="486" xmlns="http://www.w3.org/2000/svg" xml:space="preserve" version="1.1">

 <g>
  <title>Layer 1</title>
  <g transform="rotate(10.6595 299.512 202.419)" stroke="null" id="svg_34">
   <path stroke="null" fill="#f3c976" d="m312.82588,319.61304l-10.14752,-298.56715l-6.54626,-6.15375l-5.99348,5.62537l8.57158,299.90659l14.11568,-0.81106z" id="svg_29"/>
   <path stroke="null" d="m313.80087,333.37073l-1.14295,-16.23388l-14.06987,0.48828l-0.23114,17.05242s-13.81105,11.93502 -14.27042,14.37059c-0.61619,3.34033 22.32545,53.46321 23.70909,53.77921c2.26423,0.52097 8.32394,-17.89 12.49941,-29.23368c4.9645,-13.44807 8.80824,-25.20849 8.5332,-26.97618c-0.57776,-3.94128 -15.02732,-13.24676 -15.02732,-13.24676z" fill="#858585" id="svg_30"/>
   <path stroke="null" d="m301.49397,20.08258l-11.35485,0.43689s-1.67136,-15.91577 -0.82697,-17.20841c0.4997,-0.76679 9.47285,-2.14882 10.01003,-0.62576c0.5188,1.50229 2.17179,17.39728 2.17179,17.39728z" fill="#5d6265" id="svg_31"/>
   <path stroke="null" d="m304.33349,97.7557c-0.09497,-0.23224 -1.15653,-23.44944 -2.15731,-44.8915c-0.77677,-16.6106 -1.67984,-32.53161 -1.21172,-33.126c1.05762,-1.34287 20.16447,-2.66975 22.54357,-0.35411s1.1198,35.97706 -0.61605,50.66208c-3.57341,30.33713 -18.55849,27.70953 -18.55849,27.70953z" fill="#db0d2a" id="svg_32"/>
   <path stroke="null" d="m292.95665,97.95703c0.01503,-0.85703 -0.83222,-27.03659 -1.53618,-48.76732c-0.48543,-14.90771 -0.71006,-27.89734 -1.17351,-28.58787c-0.66657,-0.96184 -18.68447,-1.89966 -19.53404,-0.82096c-1.56042,1.98129 0.43682,40.98989 4.41304,56.8899c5.85605,23.43624 17.83069,21.28625 17.83069,21.28625z" fill="#db0d2a" id="svg_33"/>
  </g>
  <g transform="rotate(1.14584 235.512 200.419)" stroke="null" id="svg_28">
   <path stroke="null" fill="#f3c976" d="m248.82588,317.61304l-10.14752,-298.56715l-6.54626,-6.15375l-5.99348,5.62537l8.57158,299.90659l14.11568,-0.81106z" id="svg_23"/>
   <path stroke="null" d="m249.80087,331.37073l-1.14295,-16.23388l-14.06987,0.48828l-0.23114,17.05242s-13.81105,11.93502 -14.27042,14.37059c-0.61619,3.34033 22.32545,53.46321 23.70909,53.77921c2.26423,0.52097 8.32394,-17.89 12.49941,-29.23368c4.9645,-13.44807 8.80824,-25.20849 8.5332,-26.97618c-0.57776,-3.94128 -15.02732,-13.24676 -15.02732,-13.24676z" fill="#858585" id="svg_24"/>
   <path stroke="null" d="m237.49397,18.08258l-11.35485,0.43689s-1.67136,-15.91577 -0.82697,-17.20841c0.4997,-0.76679 9.47285,-2.14882 10.01003,-0.62576c0.5188,1.50229 2.17179,17.39728 2.17179,17.39728z" fill="#5d6265" id="svg_25"/>
   <path stroke="null" d="m240.33349,95.7557c-0.09497,-0.23224 -1.15653,-23.44944 -2.15731,-44.8915c-0.77677,-16.6106 -1.67984,-32.53161 -1.21172,-33.126c1.05762,-1.34287 20.16447,-2.66975 22.54357,-0.35411s1.1198,35.97706 -0.61605,50.66208c-3.57341,30.33713 -18.55849,27.70953 -18.55849,27.70953z" fill="#db0d2a" id="svg_26"/>
   <path stroke="null" d="m228.95665,95.95703c0.01503,-0.85703 -0.83222,-27.03659 -1.53618,-48.76732c-0.48543,-14.90771 -0.71006,-27.89734 -1.17351,-28.58787c-0.66657,-0.96184 -18.68447,-1.89966 -19.53404,-0.82096c-1.56042,1.98129 0.43682,40.98989 4.41304,56.8899c5.85605,23.43624 17.83069,21.28625 17.83069,21.28625z" fill="#db0d2a" id="svg_27"/>
  </g>
  <g stroke="null" id="svg_1">
   <path transform="rotate(-8.46037 170.347 170.746)" stroke="null" fill="#f3c976" d="m181.69021,322.70141l-10.14752,-298.56714l-6.54626,-6.15376l-5.99349,5.62538l8.57158,299.90659l14.11568,-0.81106z" id="svg_17"/>
   <path transform="rotate(-8.46037 203.565 360.251)" stroke="null" d="m210.90759,333.63406l-1.14294,-16.23388l-14.06987,0.48829l-0.23114,17.05242s-13.81106,11.93502 -14.27042,14.37058c-0.61619,3.34033 22.32544,53.46322 23.70908,53.77921c2.26423,0.52097 8.32394,-17.89 12.49941,-29.23368c4.9645,-13.44808 8.80824,-25.20849 8.5332,-26.97619c-0.57776,-3.94127 -15.02732,-13.24676 -15.02732,-13.24676z" fill="#858585" id="svg_18"/>
   <path transform="rotate(-8.46037 141.206 16.962)" stroke="null" d="m147.41558,25.78483l-11.35485,0.43689s-1.67136,-15.91576 -0.82697,-17.20841c0.4997,-0.76678 9.47285,-2.14882 10.01002,-0.62576c0.51881,1.50229 2.17179,17.39728 2.17179,17.39728z" fill="#5d6265" id="svg_19"/>
   <path transform="rotate(-8.46037 165.43 60.5801)" stroke="null" d="m156.93605,100.36858c-0.09496,-0.23224 -1.15652,-23.44944 -2.1573,-44.8915c-0.77678,-16.6106 -1.67985,-32.53161 -1.21172,-33.126c1.05762,-1.34287 20.16447,-2.66975 22.54356,-0.35411s1.1198,35.97706 -0.61605,50.66208c-3.57341,30.33713 -18.55849,27.70953 -18.55849,27.70953z" fill="#db0d2a" id="svg_20"/>
   <path transform="rotate(-8.46037 134.613 65.8584)" stroke="null" d="m146.00042,105.16131c0.01502,-0.85702 -0.83222,-27.03659 -1.53618,-48.76732c-0.48543,-14.90771 -0.71006,-27.89733 -1.17351,-28.58786c-0.66657,-0.96184 -18.68448,-1.89966 -19.53404,-0.82096c-1.56042,1.98128 0.43681,40.98989 4.41304,56.8899c5.85605,23.43623 17.83069,21.28624 17.83069,21.28624z" fill="#db0d2a" id="svg_21"/>
  </g>
  <path id="svg_2" fill="#3D3D3D" d="m367.51701,478.07413c0,4.536 -3.678,8.214 -8.214,8.214l-251.893,0c-4.536,0 -8.214,-3.678 -8.214,-8.214s3.678,-8.214 8.214,-8.214l251.893,0c4.536,0 8.214,3.678 8.214,8.214zm-291.868,-8.214l-1.095,0c-4.536,0 -8.214,3.678 -8.214,8.214s3.678,8.214 8.214,8.214l1.095,0c4.536,0 8.214,-3.678 8.214,-8.214s-3.678,-8.214 -8.214,-8.214zm-43.807,0l-1.095,0c-4.536,0 -8.214,3.678 -8.214,8.214s3.677,8.214 8.214,8.214l1.095,0c4.536,0 8.214,-3.678 8.214,-8.214s-3.678,-8.214 -8.214,-8.214zm361.412,0l-1.095,0c-4.536,0 -8.214,3.678 -8.214,8.214s3.678,8.214 8.214,8.214l1.095,0c4.536,0 8.214,-3.678 8.214,-8.214s-3.678,-8.214 -8.214,-8.214z"/>
  <path id="svg_3" fill="#6D2C00" d="m215.32401,274.72013l-147.138,147.138c-2.139,2.139 -5.605,2.139 -7.744,0l-30.976,-30.976c-2.139,-2.139 -2.139,-5.605 0,-7.744l147.138,-147.138c2.139,-2.139 5.605,-2.139 7.744,0l30.976,30.976c2.139,2.137 2.139,5.605 0,7.744z"/>
  <path id="svg_6" fill="#D18839" d="m299.79701,486.28813l-121.93,0c-5.756,0 -10.53,-4.456 -10.926,-10.198l-20.393,-295.701c-0.437,-6.33 4.581,-11.705 10.926,-11.705l162.715,0c6.346,0 11.363,5.375 10.926,11.705l-20.393,295.701c-0.396,5.742 -5.169,10.198 -10.925,10.198z"/>
  <path id="svg_7" fill="#B2682F" d="m314.49301,421.41513l-3.771,54.675c-0.396,5.742 -5.169,10.198 -10.926,10.198l-121.929,0c-5.756,0 -10.53,-4.456 -10.926,-10.198l-20.393,-295.701c-0.437,-6.33 4.581,-11.705 10.926,-11.705l47.385,0l11.803,171.144c3.168,45.94 41.359,81.587 87.407,81.587l10.424,0z"/>
  <path id="svg_8" fill="#8E3900" d="m342.87501,278.20213l-208.086,0c-3.024,0 -5.476,-2.452 -5.476,-5.476l0,-43.807c0,-3.024 2.452,-5.476 5.476,-5.476l208.086,0c3.024,0 5.476,2.452 5.476,5.476l0,43.807c0,3.024 -2.452,5.476 -5.476,5.476z"/>
  <path id="svg_9" fill="#E28A3B" d="m222.40401,289.15413l-32.856,0c-3.024,0 -5.476,-2.452 -5.476,-5.476l0,-65.711c0,-3.024 2.452,-5.476 5.476,-5.476l32.856,0c3.024,0 5.476,2.452 5.476,5.476l0,65.711c0,3.024 -2.452,5.476 -5.476,5.476z"/>
  <path id="svg_10" fill="#FFB150" d="m227.88001,217.96713l0,48.335c-2.016,0.612 -4.154,0.948 -6.371,0.948c-12.097,0 -21.904,-9.806 -21.904,-21.904l0,-32.856l22.799,0c3.024,0.001 5.476,2.453 5.476,5.477z"/>
  <path d="m48,352.28813c0,1 -0.30656,1.4588 1,2c0.92388,0.38269 1,2 3,4c0,0 1.69255,2.186 3,4c1.65381,2.29453 3.69255,3.186 5,5c0.8269,1.14728 4,3 4,3c1,2 2,3 4,4c0,0 0,0 1,0l1,1l1,0" id="svg_37" fill="none"/>
  <path d="m95.99999,372.28813c0,-1 0,-2 0,-2c0,-3 0.68925,-4.08026 0,-7c-0.51375,-2.17624 -2,-5 -3,-8c-1,-3 -1,-6 -2,-9c-1,-3 -2.49345,-4.87857 -3,-8c-0.48055,-2.96127 -1.34619,-5.70544 -3,-8c-1.30745,-1.814 0.14806,-4.22836 -0.99999,-7c-0.5412,-1.30655 -2.48626,-2.82376 -3,-5c-0.4595,-1.9465 -1,-3 -1,-4c0,-1 0,-4 -1,-4c0,0 -1,-3 -1,-4l0,0l-1,-1" id="svg_38" fill="none"/>
  <path id="svg_40" d="m0,123.28812c16,59 60,51 59.00001,50.00001" opacity="NaN" fill="#ffffff"/>
 </g>
</svg>