<svg width="401" height="486" xmlns="http://www.w3.org/2000/svg" xml:space="preserve" version="1.1">

 <g>
  <title>Layer 1</title>
  <path id="svg_2" fill="#3D3D3D" d="m367.51701,478.07413c0,4.536 -3.678,8.214 -8.214,8.214l-251.893,0c-4.536,0 -8.214,-3.678 -8.214,-8.214s3.678,-8.214 8.214,-8.214l251.893,0c4.536,0 8.214,3.678 8.214,8.214zm-291.868,-8.214l-1.095,0c-4.536,0 -8.214,3.678 -8.214,8.214s3.678,8.214 8.214,8.214l1.095,0c4.536,0 8.214,-3.678 8.214,-8.214s-3.678,-8.214 -8.214,-8.214zm-43.807,0l-1.095,0c-4.536,0 -8.214,3.678 -8.214,8.214s3.677,8.214 8.214,8.214l1.095,0c4.536,0 8.214,-3.678 8.214,-8.214s-3.678,-8.214 -8.214,-8.214zm361.412,0l-1.095,0c-4.536,0 -8.214,3.678 -8.214,8.214s3.678,8.214 8.214,8.214l1.095,0c4.536,0 8.214,-3.678 8.214,-8.214s-3.678,-8.214 -8.214,-8.214z"/>
  <path id="svg_3" fill="#6D2C00" d="m215.32401,274.72013l-147.138,147.138c-2.139,2.139 -5.605,2.139 -7.744,0l-30.976,-30.976c-2.139,-2.139 -2.139,-5.605 0,-7.744l147.138,-147.138c2.139,-2.139 5.605,-2.139 7.744,0l30.976,30.976c2.139,2.137 2.139,5.605 0,7.744z"/>
  <path id="svg_6" fill="#D18839" d="m299.79701,486.28813l-121.93,0c-5.756,0 -10.53,-4.456 -10.926,-10.198l-20.393,-295.701c-0.437,-6.33 4.581,-11.705 10.926,-11.705l162.715,0c6.346,0 11.363,5.375 10.926,11.705l-20.393,295.701c-0.396,5.742 -5.169,10.198 -10.925,10.198z"/>
  <path id="svg_7" fill="#B2682F" d="m314.49301,421.41513l-3.771,54.675c-0.396,5.742 -5.169,10.198 -10.926,10.198l-121.929,0c-5.756,0 -10.53,-4.456 -10.926,-10.198l-20.393,-295.701c-0.437,-6.33 4.581,-11.705 10.926,-11.705l47.385,0l11.803,171.144c3.168,45.94 41.359,81.587 87.407,81.587l10.424,0z"/>
  <path id="svg_8" fill="#8E3900" d="m342.87501,278.20213l-208.086,0c-3.024,0 -5.476,-2.452 -5.476,-5.476l0,-43.807c0,-3.024 2.452,-5.476 5.476,-5.476l208.086,0c3.024,0 5.476,2.452 5.476,5.476l0,43.807c0,3.024 -2.452,5.476 -5.476,5.476z"/>
  <path id="svg_9" fill="#E28A3B" d="m222.40401,289.15413l-32.856,0c-3.024,0 -5.476,-2.452 -5.476,-5.476l0,-65.711c0,-3.024 2.452,-5.476 5.476,-5.476l32.856,0c3.024,0 5.476,2.452 5.476,5.476l0,65.711c0,3.024 -2.452,5.476 -5.476,5.476z"/>
  <path id="svg_10" fill="#FFB150" d="m227.88001,217.96713l0,48.335c-2.016,0.612 -4.154,0.948 -6.371,0.948c-12.097,0 -21.904,-9.806 -21.904,-21.904l0,-32.856l22.799,0c3.024,0.001 5.476,2.453 5.476,5.477z"/>
  <path d="m48,352.28813c0,1 -0.30656,1.4588 1,2c0.92388,0.38269 1,2 3,4c0,0 1.69255,2.186 3,4c1.65381,2.29453 3.69255,3.186 5,5c0.8269,1.14728 4,3 4,3c1,2 2,3 4,4c0,0 0,0 1,0l1,1l1,0" id="svg_37" fill="none"/>
  <path d="m95.99999,372.28813c0,-1 0,-2 0,-2c0,-3 0.68925,-4.08026 0,-7c-0.51375,-2.17624 -2,-5 -3,-8c-1,-3 -1,-6 -2,-9c-1,-3 -2.49345,-4.87857 -3,-8c-0.48055,-2.96127 -1.34619,-5.70544 -3,-8c-1.30745,-1.814 0.14806,-4.22836 -0.99999,-7c-0.5412,-1.30655 -2.48626,-2.82376 -3,-5c-0.4595,-1.9465 -1,-3 -1,-4c0,-1 0,-4 -1,-4c0,0 -1,-3 -1,-4l0,0l-1,-1" id="svg_38" fill="none"/>
  <path id="svg_40" d="m0,123.28812c16,59 60,51 59.00001,50.00001" opacity="NaN" fill="#ffffff"/>
 </g>
</svg>